<svg width="27" height="30" viewBox="0 0 27 30" fill="none" xmlns="http://www.w3.org/2000/svg">
<path d="M12.386 29.9789C11.8921 29.0857 11.3991 28.1917 10.9044 27.2994C8.99234 23.8501 7.08194 20.4007 5.16309 16.9556C5.03815 16.731 5.02464 16.5487 5.12848 16.3089C5.78779 14.7792 6.43022 13.2428 7.07772 11.7081C7.12161 11.6042 7.15454 11.4962 7.19168 11.3907C7.16467 11.3704 7.13681 11.3493 7.1098 11.329C6.05456 12.44 4.99847 13.5509 3.91538 14.6906C3.55491 14.0473 3.21723 13.4437 2.88293 12.8477C3.92888 11.779 4.96386 10.7212 5.99884 9.66429C5.99377 9.6491 5.98871 9.63475 5.98364 9.61955C4.68359 10.1978 3.38354 10.7761 2.06913 11.3603C1.73399 10.7693 1.40898 10.2037 1.09156 9.6339C0.752195 9.02609 0.42887 8.40983 0.0793755 7.80792C-0.0430321 7.59771 -0.029525 7.48037 0.159574 7.31069C1.5069 6.10519 2.76052 4.80766 3.79719 3.31936C4.45482 2.37471 5.05081 1.38954 5.34628 0.258322C5.39862 0.0565606 5.50752 0 5.70759 0C10.8141 0.00422095 15.9206 0.00253247 21.0271 0.00253247C21.1884 0.00253247 21.326 -0.0033769 21.3884 0.211892C21.8519 1.82683 22.7459 3.20877 23.8374 4.45226C24.7264 5.46445 25.7082 6.39559 26.641 7.37063C26.7077 7.43985 26.7651 7.60531 26.7288 7.67285C26.0678 8.88595 25.3924 10.0906 24.7179 11.2961C24.7086 11.3122 24.685 11.3198 24.6462 11.3459C23.3672 10.7769 22.0764 10.202 20.7848 9.62715C20.7671 9.65332 20.7502 9.67949 20.7325 9.70566C20.9621 9.94372 21.1867 10.1868 21.4222 10.419C22.1963 11.1813 22.9764 11.9369 23.7471 12.7034C23.8011 12.7566 23.8357 12.8984 23.8037 12.9575C23.4989 13.5222 23.1773 14.0777 22.832 14.6872C21.7506 13.5501 20.6903 12.4341 19.6291 11.3181C19.6038 11.3324 19.5785 11.3468 19.5532 11.362C19.5827 11.4523 19.6063 11.546 19.6435 11.6329C20.2944 13.1778 20.941 14.7244 21.6054 16.2625C21.7219 16.5318 21.7101 16.7361 21.5666 16.9936C19.2653 21.1309 16.975 25.2742 14.6805 29.4158C14.5843 29.5897 14.4804 29.7586 14.3386 30C14.3268 29.8455 14.3158 29.7678 14.3158 29.691C14.3158 27.5907 14.3209 25.4912 14.3107 23.3908C14.3099 23.119 14.3842 22.9611 14.6273 22.8117C15.8193 22.0806 16.1747 20.5949 15.4555 19.451C14.7269 18.2919 13.2378 17.9374 12.1066 18.6532C10.5203 19.6578 10.5347 21.8536 12.1454 22.8235C12.375 22.962 12.4569 23.1047 12.4552 23.3706C12.4442 25.5655 12.4493 27.7595 12.4493 29.9544L12.3868 29.9789H12.386ZM13.3737 14.6467C14.4551 15.7433 15.4791 16.7918 16.52 17.8234C16.6458 17.9475 16.8594 18.0395 17.0366 18.0463C17.7111 18.0716 18.3865 18.0505 19.0618 18.0598C19.2965 18.0631 19.4105 18.0007 19.3978 17.7373C19.3784 17.327 19.3835 16.9142 19.3961 16.5031C19.4029 16.2844 19.3235 16.1992 19.1049 16.2034C18.6516 16.2118 18.1965 16.2228 17.7449 16.1966C17.5845 16.1874 17.3929 16.1139 17.2798 16.0042C16.5293 15.2782 15.7965 14.5336 15.057 13.7966C14.293 13.0351 14.2989 13.036 14.3099 11.9681C14.3124 11.7427 14.3859 11.6574 14.6037 11.6194C16.401 11.3037 17.4165 10.0813 17.4157 8.25027C17.4157 7.25835 17.425 6.26643 17.4089 5.27535C17.4047 5.00605 17.4967 4.8828 17.7517 4.80767C18.1856 4.68019 18.6127 4.52317 19.0365 4.36447C19.8807 4.04705 20.3965 3.16065 20.2268 2.35951C20.1762 2.11892 20.0892 2.04885 19.8385 2.13918C18.5199 2.61361 17.1979 3.07961 15.8708 3.52872C15.6074 3.6182 15.5441 3.75496 15.5458 4.01075C15.5559 5.51932 15.5534 7.02873 15.5492 8.5373C15.5466 9.2709 15.03 9.80021 14.3065 9.80949C13.6632 9.81794 13.0174 9.83651 12.3767 9.79599C12.1226 9.77995 11.8457 9.65923 11.6355 9.50727C11.286 9.25486 11.1999 8.85725 11.2007 8.43684C11.205 6.95951 11.1974 5.48217 11.2067 4.00568C11.2083 3.74483 11.1239 3.61398 10.8681 3.52703C9.55204 3.07876 8.23932 2.61783 6.93167 2.14424C6.64549 2.04041 6.55938 2.13749 6.51295 2.39835C6.36944 3.21637 6.88862 4.06478 7.748 4.38135C8.17347 4.53837 8.5981 4.69792 9.03286 4.8237C9.28781 4.89715 9.35028 5.03053 9.34774 5.27872C9.33593 6.34409 9.32411 7.4103 9.35281 8.47567C9.36378 8.86822 9.42625 9.28272 9.5723 9.64488C10.0315 10.782 10.9011 11.4371 12.115 11.6169C12.3522 11.6524 12.4738 11.7241 12.4501 11.99C12.4265 12.2627 12.4594 12.5396 12.4383 12.8123C12.4282 12.9364 12.3775 13.0858 12.2931 13.1719C11.3544 14.1275 10.4097 15.0772 9.45158 16.0143C9.3393 16.124 9.14345 16.1907 8.98221 16.1992C8.52972 16.2237 8.07555 16.2127 7.62222 16.2059C7.41961 16.2026 7.33519 16.2878 7.33773 16.4879C7.34279 16.8779 7.35292 17.2696 7.33266 17.6588C7.31747 17.9568 7.41624 18.0724 7.72605 18.064C8.37946 18.0454 9.03455 18.0496 9.68795 18.064C9.93277 18.0691 10.0991 17.9813 10.2654 17.8099C11.2793 16.7665 12.3033 15.734 13.3712 14.6492L13.3737 14.6467Z" fill="white"/>
</svg>
