<svg width="40" height="40" viewBox="0 0 40 40" fill="none" xmlns="http://www.w3.org/2000/svg">
<rect width="40" height="40" fill="white"/>
<path d="M32.4091 10.4404H7.40909C5.52955 10.4404 4 11.9793 4 13.8704V32.1634C4 34.0544 5.52955 35.5933 7.40909 35.5933H32.4091C34.2886 35.5933 35.8182 34.0544 35.8182 32.1634V13.8704C35.8182 11.9793 34.2886 10.4404 32.4091 10.4404ZM31.6523 12.7271L20.592 21.0732C20.3947 21.2207 20.1555 21.3004 19.9097 21.3004C19.6639 21.3004 19.4246 21.2207 19.2273 21.0732L8.16591 12.7271H31.6523ZM32.4091 33.3067H7.40909C6.78182 33.3067 6.27273 32.7934 6.27273 32.1634V14.1562L17.8636 22.9026C18.4648 23.3564 19.1875 23.584 19.9091 23.584C20.6307 23.584 21.3534 23.3564 21.9545 22.9026L33.5455 14.1562V32.1634C33.5455 32.7934 33.0364 33.3067 32.4091 33.3067Z" fill="#FF5D00"/>
</svg>
