<svg width="40" height="40" viewBox="0 0 40 40" fill="none" xmlns="http://www.w3.org/2000/svg">
<rect width="40" height="40" fill="white"/>
<path d="M11.0564 27.1191C14.0154 30.6779 17.5773 33.4798 21.6428 35.4624C23.1907 36.2004 25.2607 37.076 27.567 37.2262C27.7099 37.2324 27.8467 37.2387 27.9897 37.2387C29.5375 37.2387 30.7808 36.7008 31.7941 35.5938C31.8003 35.5875 31.8127 35.575 31.8189 35.5625C32.1795 35.1247 32.5898 34.7307 33.0187 34.3116C33.3109 34.0302 33.6092 33.7362 33.8952 33.436C35.2193 32.0476 35.2193 30.2838 33.8828 28.9391L30.1467 25.1803C29.5127 24.5173 28.7543 24.1671 27.9586 24.1671C27.1629 24.1671 26.3983 24.5173 25.7456 25.174L23.5201 27.4131C23.315 27.2942 23.1036 27.1879 22.9047 27.0879C22.6561 26.9628 22.4261 26.8439 22.2209 26.7126C20.1944 25.4179 18.3544 23.7293 16.5952 21.559C15.7062 20.427 15.1095 19.4763 14.693 18.5069C15.2773 17.9753 15.8243 17.4186 16.3527 16.8745C16.5392 16.6806 16.7319 16.4867 16.9246 16.2928C17.596 15.6174 17.9565 14.8356 17.9565 14.0413C17.9565 13.247 17.6022 12.4652 16.9246 11.7897L15.0722 9.92592C14.8546 9.70702 14.6494 9.49437 14.4381 9.27547C14.0278 8.85017 13.5989 8.41237 13.1762 8.01835C12.5359 7.38666 11.7837 7.05518 10.988 7.05518C10.1986 7.05518 9.44016 7.38666 8.77501 8.0246L6.45011 10.3637C5.60469 11.2143 5.12603 12.2463 5.02657 13.4409C4.90846 14.9357 5.18198 16.5243 5.89064 18.4443C6.9785 21.4152 8.61961 24.1733 11.0564 27.1191ZM6.54335 13.5722C6.61795 12.7404 6.93498 12.0461 7.53175 11.4457L9.84422 9.11911C10.2048 8.76887 10.6026 8.58749 10.988 8.58749C11.3672 8.58749 11.7526 8.76887 12.107 9.13162C12.5235 9.51939 12.9151 9.92592 13.3378 10.3575C13.5492 10.5764 13.7667 10.7953 13.9843 11.0204L15.8368 12.8842C16.2222 13.272 16.4211 13.666 16.4211 14.0538C16.4211 14.4416 16.2222 14.8356 15.8368 15.2234C15.6441 15.4172 15.4514 15.6174 15.2586 15.8113C14.6805 16.3992 14.1397 16.9558 13.5429 17.4874L13.5119 17.5187C12.9959 18.0378 13.0767 18.5319 13.201 18.9072C13.2073 18.9259 13.2135 18.9384 13.2197 18.9572C13.6983 20.1143 14.3635 21.215 15.4016 22.5284C17.2665 24.8425 19.2309 26.6375 21.3942 28.0198C21.6615 28.1949 21.9474 28.3325 22.2147 28.4701C22.4634 28.5952 22.6934 28.714 22.8985 28.8453C22.9234 28.8578 22.942 28.8703 22.9669 28.8829C23.172 28.9892 23.371 29.0392 23.5699 29.0392C24.0672 29.0392 24.3904 28.7202 24.4961 28.6139L26.821 26.2748C27.1816 25.912 27.5732 25.7182 27.9586 25.7182C28.431 25.7182 28.8165 26.0121 29.0589 26.2748L32.8073 30.0399C33.5533 30.7904 33.5471 31.6035 32.7887 32.3978C32.5276 32.6792 32.2541 32.9482 31.9619 33.2296C31.5268 33.6549 31.073 34.0927 30.6627 34.5868C29.9478 35.3624 29.0962 35.7251 27.9959 35.7251C27.8902 35.7251 27.7783 35.7189 27.6727 35.7126C25.6337 35.5813 23.7377 34.7807 22.3142 34.099C18.4476 32.2164 15.0535 29.5458 12.2375 26.156C9.91882 23.3478 8.35852 20.7334 7.32661 17.9315C6.68633 16.2115 6.44389 14.8293 6.54335 13.5722Z" fill="#FF5D00" stroke="#FF5D00"/>
</svg>
