<svg width="27" height="30" viewBox="0 0 27 30" fill="none" xmlns="http://www.w3.org/2000/svg">
<path d="M12.386 0.0211029C11.8921 0.914257 11.3991 1.80826 10.9044 2.70057C8.99234 6.14993 7.08194 9.59929 5.16309 13.0444C5.03815 13.269 5.02464 13.4513 5.12848 13.6911C5.78779 15.2208 6.43022 16.7572 7.07772 18.2919C7.12161 18.3958 7.15454 18.5038 7.19168 18.6093C7.16467 18.6296 7.13681 18.6507 7.1098 18.671C6.05456 17.56 4.99847 16.4491 3.91538 15.3094C3.55491 15.9527 3.21723 16.5563 2.88293 17.1523C3.92888 18.221 4.96386 19.2788 5.99884 20.3357C5.99377 20.3509 5.98871 20.3653 5.98364 20.3804C4.68359 19.8022 3.38354 19.2239 2.06913 18.6397C1.73399 19.2307 1.40898 19.7963 1.09156 20.3661C0.752195 20.9739 0.42887 21.5902 0.0793755 22.1921C-0.0430321 22.4023 -0.029525 22.5196 0.159574 22.6893C1.5069 23.8948 2.76052 25.1923 3.79719 26.6806C4.45482 27.6253 5.05081 28.6105 5.34628 29.7417C5.39862 29.9434 5.50752 30 5.70759 30C10.8141 29.9958 15.9206 29.9975 21.0271 29.9975C21.1884 29.9975 21.326 30.0034 21.3884 29.7881C21.8519 28.1732 22.7459 26.7912 23.8374 25.5477C24.7264 24.5356 25.7082 23.6044 26.641 22.6294C26.7077 22.5601 26.7651 22.3947 26.7288 22.3272C26.0678 21.1141 25.3924 19.9094 24.7179 18.7039C24.7086 18.6878 24.685 18.6802 24.6462 18.6541C23.3672 19.2231 22.0764 19.798 20.7848 20.3729C20.7671 20.3467 20.7502 20.3205 20.7325 20.2943C20.9621 20.0563 21.1867 19.8132 21.4222 19.581C22.1963 18.8187 22.9764 18.0631 23.7471 17.2966C23.8011 17.2434 23.8357 17.1016 23.8037 17.0425C23.4989 16.4778 23.1773 15.9223 22.832 15.3128C21.7506 16.4499 20.6903 17.5659 19.6291 18.6819C19.6038 18.6676 19.5785 18.6532 19.5532 18.638C19.5827 18.5477 19.6063 18.454 19.6435 18.3671C20.2944 16.8222 20.941 15.2756 21.6054 13.7375C21.7219 13.4682 21.7101 13.2639 21.5666 13.0064C19.2653 8.86907 16.975 4.72578 14.6805 0.584181C14.5843 0.410278 14.4804 0.241439 14.3386 0C14.3268 0.154487 14.3158 0.232152 14.3158 0.308973C14.3158 2.40932 14.3209 4.50882 14.3107 6.60917C14.3099 6.881 14.3842 7.03886 14.6273 7.18828C15.8193 7.91935 16.1747 9.40513 15.4555 10.549C14.7269 11.7081 13.2378 12.0626 12.1066 11.3468C10.5203 10.3422 10.5347 8.14644 12.1454 7.17646C12.375 7.03802 12.4569 6.89535 12.4552 6.62943C12.4442 4.43453 12.4493 2.24048 12.4493 0.0455875L12.3868 0.0211029H12.386ZM13.3737 15.3533C14.4551 14.2567 15.4791 13.2082 16.52 12.1766C16.6458 12.0525 16.8594 11.9605 17.0366 11.9537C17.7111 11.9284 18.3865 11.9495 19.0618 11.9402C19.2965 11.9369 19.4105 11.9993 19.3978 12.2627C19.3784 12.673 19.3835 13.0858 19.3961 13.4969C19.4029 13.7156 19.3235 13.8008 19.1049 13.7966C18.6516 13.7882 18.1965 13.7772 17.7449 13.8034C17.5845 13.8126 17.3929 13.8861 17.2798 13.9958C16.5293 14.7218 15.7965 15.4664 15.057 16.2034C14.293 16.9649 14.2989 16.964 14.3099 18.0319C14.3124 18.2573 14.3859 18.3426 14.6037 18.3806C16.401 18.6963 17.4165 19.9187 17.4157 21.7497C17.4157 22.7416 17.425 23.7336 17.4089 24.7247C17.4047 24.9939 17.4967 25.1172 17.7517 25.1923C18.1856 25.3198 18.6127 25.4768 19.0365 25.6355C19.8807 25.953 20.3965 26.8394 20.2268 27.6405C20.1762 27.8811 20.0892 27.9511 19.8385 27.8608C18.5199 27.3864 17.1979 26.9204 15.8708 26.4713C15.6074 26.3818 15.5441 26.245 15.5458 25.9893C15.5559 24.4807 15.5534 22.9713 15.5492 21.4627C15.5466 20.7291 15.03 20.1998 14.3065 20.1905C13.6632 20.1821 13.0174 20.1635 12.3767 20.204C12.1226 20.2201 11.8457 20.3408 11.6355 20.4927C11.286 20.7451 11.1999 21.1428 11.2007 21.5632C11.205 23.0405 11.1974 24.5178 11.2067 25.9943C11.2083 26.2552 11.1239 26.386 10.8681 26.473C9.55204 26.9212 8.23932 27.3822 6.93167 27.8558C6.64549 27.9596 6.55938 27.8625 6.51295 27.6017C6.36944 26.7836 6.88862 25.9352 7.748 25.6187C8.17347 25.4616 8.5981 25.3021 9.03286 25.1763C9.28781 25.1029 9.35028 24.9695 9.34774 24.7213C9.33593 23.6559 9.32411 22.5897 9.35281 21.5243C9.36378 21.1318 9.42625 20.7173 9.5723 20.3551C10.0315 19.218 10.9011 18.5629 12.115 18.3831C12.3522 18.3476 12.4738 18.2759 12.4501 18.01C12.4265 17.7373 12.4594 17.4604 12.4383 17.1877C12.4282 17.0636 12.3775 16.9142 12.2931 16.8281C11.3544 15.8725 10.4097 14.9228 9.45158 13.9857C9.3393 13.876 9.14345 13.8093 8.98221 13.8008C8.52972 13.7763 8.07555 13.7873 7.62222 13.7941C7.41961 13.7974 7.33519 13.7122 7.33773 13.5121C7.34279 13.1221 7.35292 12.7304 7.33266 12.3412C7.31747 12.0432 7.41624 11.9276 7.72605 11.936C8.37946 11.9546 9.03455 11.9504 9.68795 11.936C9.93277 11.9309 10.0991 12.0187 10.2654 12.1901C11.2793 13.2335 12.3033 14.266 13.3712 15.3508L13.3737 15.3533Z" fill="#FF5D00"/>
</svg>
